HIERARCHY
ROOT Hips
{
	OFFSET 0.000000 0.000000 0.000000
	CHANNELS 6 Xposition Yposition Zposition Zrotation Yrotation Xrotation 
	JOINT LHipJoint
	{
		OFFSET 0.000000 0.000000 0.000000
		CHANNELS 3 Zrotation Yrotation Xrotation
		JOINT LeftUpLeg
		{
			OFFSET 1.363060 -1.794630 0.839290
			CHANNELS 3 Zrotation Yrotation Xrotation
			JOINT LeftLeg
			{
				OFFSET 2.448110 -6.726130 0.000000
				CHANNELS 3 Zrotation Yrotation Xrotation
				JOINT LeftFoot
				{
					OFFSET 2.562200 -7.039590 0.000000
					CHANNELS 3 Zrotation Yrotation Xrotation
					JOINT LeftToeBase
					{
						OFFSET 0.157640 -0.433110 2.322550
						CHANNELS 3 Zrotation Yrotation Xrotation
						End Site
						{
							OFFSET 0.000000 0.000000 0.000000
						}
					}
				}
			}
		}
	}
	JOINT RHipJoint
	{
		OFFSET 0.000000 0.000000 0.000000
		CHANNELS 3 Zrotation Yrotation Xrotation
		JOINT RightUpLeg
		{
			OFFSET -1.305520 -1.794630 0.839290
			CHANNELS 3 Zrotation Yrotation Xrotation
			JOINT RightLeg
			{
				OFFSET -2.542530 -6.985550 0.000000
				CHANNELS 3 Zrotation Yrotation Xrotation
				JOINT RightFoot
				{
					OFFSET -2.568260 -7.056230 0.000000
					CHANNELS 3 Zrotation Yrotation Xrotation
					JOINT RightToeBase
					{
						OFFSET -0.164730 -0.452590 2.363150
						CHANNELS 3 Zrotation Yrotation Xrotation
						End Site
						{
							OFFSET 0.000000 0.000000 0.000000
						}
					}
				}
			}
		}
	}
	JOINT LowerBack
	{
		OFFSET 0.000000 0.000000 0.000000
		CHANNELS 3 Zrotation Yrotation Xrotation
		JOINT Spine
		{
			OFFSET 0.028270 2.035590 -0.193380
			CHANNELS 3 Zrotation Yrotation Xrotation
			JOINT Spine1
			{
				OFFSET 0.056720 2.048850 -0.042750
				CHANNELS 3 Zrotation Yrotation Xrotation
				JOINT Neck
				{
					OFFSET 0.000000 0.000000 0.000000
					CHANNELS 3 Zrotation Yrotation Xrotation
					JOINT Neck1
					{
						OFFSET -0.054170 1.746240 0.172020
						CHANNELS 3 Zrotation Yrotation Xrotation
						JOINT Head
						{
							OFFSET 0.104070 1.761360 -0.123970
							CHANNELS 3 Zrotation Yrotation Xrotation
							End Site
							{
								OFFSET 0.000000 0.000000 0.000000
							}
						}
					}
				}
				JOINT LeftShoulder
				{
					OFFSET 0.000000 0.000000 0.000000
					CHANNELS 3 Zrotation Yrotation Xrotation
					JOINT LeftArm
					{
						OFFSET 3.362410 1.200890 -0.311210
						CHANNELS 3 Zrotation Yrotation Xrotation
						JOINT LeftForeArm
						{
							OFFSET 4.983000 -0.000000 -0.000000
							CHANNELS 3 Zrotation Yrotation Xrotation
							JOINT LeftHand
							{
								OFFSET 3.483560 -0.000000 -0.000000
								CHANNELS 3 Zrotation Yrotation Xrotation
								JOINT LeftFingerBase
								{
									OFFSET 0.000000 0.000000 0.000000
									CHANNELS 3 Zrotation Yrotation Xrotation
									JOINT LeftHandIndex1
									{
										OFFSET 0.715260 -0.000000 -0.000000
										CHANNELS 3 Zrotation Yrotation Xrotation
										End Site
										{
											OFFSET 0.000000 0.000000 0.000000
										}
									}
								}
								JOINT LThumb
								{
									OFFSET 0.000000 0.000000 0.000000
									CHANNELS 3 Zrotation Yrotation Xrotation
									End Site
									{
										OFFSET 0.000000 0.000000 0.000000
									}
								}
							}
						}
					}
				}
				JOINT RightShoulder
				{
					OFFSET 0.000000 0.000000 0.000000
					CHANNELS 3 Zrotation Yrotation Xrotation
					JOINT RightArm
					{
						OFFSET -3.136600 1.374050 -0.404650
						CHANNELS 3 Zrotation Yrotation Xrotation
						JOINT RightForeArm
						{
							OFFSET -5.241900 -0.000000 -0.000000
							CHANNELS 3 Zrotation Yrotation Xrotation
							JOINT RightHand
							{
								OFFSET -3.444170 -0.000000 -0.000000
								CHANNELS 3 Zrotation Yrotation Xrotation
								JOINT RightFingerBase
								{
									OFFSET 0.000000 0.000000 0.000000
									CHANNELS 3 Zrotation Yrotation Xrotation
									JOINT RightHandIndex1
									{
										OFFSET -0.622530 -0.000000 -0.000000
										CHANNELS 3 Zrotation Yrotation Xrotation
										End Site
										{
											OFFSET 0.000000 0.000000 0.000000
										}
									}
								}
								JOINT RThumb
								{
									OFFSET 0.000000 0.000000 0.000000
									CHANNELS 3 Zrotation Yrotation Xrotation
									End Site
									{
										OFFSET 0.000000 0.000000 0.000000
									}
								}
							}
						}
					}
				}
			}
		}
	}
}
MOTION
Frames: 6
Frame Time: 0.008333
-5.894737 16.013364 3.547707 -16.159921 42.524350 -14.549088 0.329399 0.401489 -0.068291 -35.978513 6.519366 -38.053181 4.731270 14.821543 44.639087 1.068224 -0.245294 17.410959 2.472500 9.787700 28.292000 -1.608779 -2.579180 1.875226 7.862496 6.353684 8.360404 -3.870039 -11.663859 39.248645 -2.828455 10.338448 24.158492 -2.077600 9.025900 -25.876200 9.487548 3.054740 20.232773 3.234355 7.233068 -0.362404 6.509619 4.060027 -6.883326 -5.728951 -13.377944 0.731830 4.616119 -17.865208 9.161104 1.754000 -8.813000 6.230000 -1.808148 3.129189 -3.126175 -72.687203 46.621107 47.253525 111.922759 -64.605104 -81.859657 -0.261576 -1.865939 -46.575271 23.218760 7.400092 3.893400 -7.125000 0.000000 0.000000 -1.847300 39.303200 0.259400 1.820597 -1.708995 -0.949520 77.297315 3.687455 53.447925 -91.119850 60.862905 -68.850224 2.157797 -0.802563 -10.158363 -10.861517 27.791689 -6.251800 7.125000 0.000000 0.000000 10.420800 -0.999900 10.412000 
-5.643303 16.020917 3.858947 -16.008743 43.189674 -14.094443 0.227882 0.430990 -0.017937 -36.638171 7.675111 -36.885074 4.577613 14.584963 44.079810 1.078700 -0.938131 15.198008 2.554500 9.936300 28.770700 -1.648904 -2.521627 1.784955 8.098966 8.403154 8.576859 -4.066045 -12.054389 40.621956 -3.094226 12.607870 25.935667 -1.649000 8.093100 -22.997200 8.147120 2.853445 18.356324 3.448126 6.439279 -0.068319 8.168496 3.665413 -5.194034 -5.906888 -13.109819 -0.088634 4.510600 -17.488509 9.376303 1.670000 -8.620600 6.330900 -1.709106 3.200660 -3.206131 -74.797674 46.321903 44.180302 115.342725 -63.810225 -84.149719 -0.302673 -1.720509 -46.340793 21.343689 7.002905 3.331700 -7.125000 0.000000 0.000000 -3.489200 38.582500 0.552300 1.905966 -1.833406 -0.911126 76.442368 3.962724 54.105658 -91.465301 61.062587 -69.181133 2.088522 -0.947492 -8.890690 -9.304046 28.199825 -5.532200 7.125000 0.000000 0.000000 11.399700 -0.708500 11.488600 
-5.407286 16.018537 4.154253 -15.823903 43.831181 -13.803309 0.194355 0.545340 0.172479 -37.343692 9.052585 -35.900899 4.682964 14.559754 44.434951 1.224876 -2.095740 13.553936 2.817800 10.394100 30.262700 -1.683014 -2.492544 1.773666 8.329079 10.253479 8.707663 -4.443922 -12.521689 42.351186 -3.108919 14.126809 25.208199 -1.706700 8.226400 -23.403800 8.049603 2.939823 18.686223 3.177076 6.550034 -0.571622 7.256440 3.753306 -6.850447 -5.789890 -13.356802 0.719129 4.593172 -17.877132 9.870592 1.684900 -8.796000 6.512100 -1.721485 3.114384 -3.179546 -72.828625 46.944553 44.157781 119.261849 -62.827928 -86.852541 -0.223822 -1.550648 -46.644274 17.440138 6.888743 2.625900 -7.125000 0.000000 0.000000 -6.953700 38.099900 1.188300 1.736737 -1.740615 -0.962899 77.186810 0.967707 53.361452 -92.988766 61.073637 -70.335096 2.013778 -1.001952 -8.249162 -8.901539 28.156776 -5.294300 7.125000 0.000000 0.000000 11.671000 -0.780500 11.758600 
-5.169717 16.025263 4.459182 -15.913931 44.464359 -13.613146 0.191025 0.630360 0.291255 -37.656961 10.570755 -35.198856 4.890639 14.656465 45.259279 1.623950 -4.409604 12.240075 3.139300 10.917200 32.001200 -1.738201 -2.467500 1.683874 8.878349 11.813667 8.704861 -5.012329 -13.079398 44.359824 -2.932062 13.151939 23.333174 -1.686300 8.179700 -23.261100 7.296497 2.852686 17.879215 3.155867 6.165013 -0.645866 7.670169 3.566786 -6.645890 -5.859365 -13.338457 0.461752 4.716116 -17.860384 10.113302 1.702300 -8.768900 6.676100 -1.708472 3.132597 -3.123644 -72.294077 46.252643 42.765168 123.243838 -61.585186 -89.586556 -0.242844 -1.475049 -46.999566 16.300513 7.086846 2.487700 -7.125000 0.000000 0.000000 -7.971600 38.145100 1.355800 1.706424 -1.778214 -0.985563 77.300645 -0.468631 53.417149 -93.882553 61.148685 -71.020057 2.014931 -0.986455 -7.507829 -9.683766 27.940460 -5.651400 7.125000 0.000000 0.000000 11.189300 -0.935800 11.222300 
-4.932044 16.046578 4.786564 -17.181383 44.653863 -14.286536 0.170610 0.693491 0.391222 -36.532945 11.800855 -34.559109 5.096282 14.767234 45.999038 1.986089 -6.485838 10.482233 3.306800 11.175900 32.875300 -1.781160 -2.429254 1.568444 10.703954 13.436985 8.671618 -5.729564 -13.675972 46.619637 -2.555168 10.481129 20.654481 -1.862800 8.574300 -24.472600 6.898372 2.808135 16.904543 3.256788 5.927657 -0.655273 8.288712 3.449429 -6.219690 -5.615482 -13.299579 0.334143 4.787335 -17.835954 10.108520 1.668200 -8.738200 6.616100 -1.682027 3.156659 -3.023865 -71.711545 44.924997 41.142442 126.652694 -60.354582 -91.944251 -0.366827 -1.485159 -46.659442 17.882677 7.577567 2.881800 -7.125000 0.000000 0.000000 -6.608000 38.687100 1.032900 1.751491 -1.860612 -1.019269 77.424604 -1.901560 53.419285 -94.217507 61.203842 -71.273649 2.048090 -0.980584 -6.010273 -10.972912 27.851064 -6.299500 7.125000 0.000000 0.000000 10.389600 -0.909900 10.396600 
-4.702856 16.061685 5.082491 -18.739418 44.726797 -15.164544 0.134134 0.747372 0.483968 -35.053620 12.519224 -33.753386 5.238359 14.812799 46.370241 2.154059 -7.344491 8.508093 3.466200 11.414000 33.689100 -1.821395 -2.380041 1.444166 12.748383 15.122765 8.246861 -6.566625 -14.301625 49.097788 -1.962688 6.691602 18.089333 -2.119800 9.111300 -26.144100 7.029997 2.746103 16.246929 3.356370 5.813335 -0.667342 8.626721 3.379194 -5.898959 -5.695558 -13.237795 0.146661 5.028593 -17.742457 10.034013 1.775500 -8.684800 6.629400 -1.688039 3.183583 -2.877638 -71.033716 42.854938 39.815496 130.234582 -58.821362 -94.489180 -0.520651 -1.539584 -46.945807 20.724019 8.549000 3.723900 -7.125000 0.000000 0.000000 -4.142400 39.842400 0.527700 1.782499 -1.906648 -1.068449 77.442198 -3.230719 52.937788 -94.340684 61.237008 -71.381155 2.033188 -1.000227 -4.871064 -11.231288 27.678536 -6.393300 7.125000 0.000000 0.000000 10.220700 -1.066100 10.193200 
